<?xml version="1.0" ?><svg id="Icons" viewBox="0 0 24 24" xmlns="http://www.w3.org/2000/svg"><title/><g fill="#fff"><path d="M5.565,22.707a1,1,0,0,0,.707-.293l4.2-4.2.929.93a1,1,0,1,0,1.414-1.414l-.774-.775,8.8-5.869a1,1,0,0,0,.445-.832V3.707a1,1,0,0,0-1-1H13.747a1,1,0,0,0-.832.445l-5.869,8.8-.774-.774A1,1,0,1,0,4.858,12.6l.93.93-4.2,4.2a1,1,0,0,0,0,1.414l3.272,3.272A1,1,0,0,0,5.565,22.707Zm8.717-18h5.011v5.01L10.6,15.511,9.545,14.455,8.489,13.4ZM7.2,14.94,9.06,16.8l-3.495,3.5L3.707,18.435Z"/></g></svg>