<?xml version="1.0" standalone="no"?>
<!DOCTYPE svg PUBLIC "-//W3C//DTD SVG 20010904//EN"
 "http://www.w3.org/TR/2001/REC-SVG-20010904/DTD/svg10.dtd">
<svg version="1.0" xmlns="http://www.w3.org/2000/svg"
 width="512.000000pt" height="512.000000pt" viewBox="0 0 512.000000 512.000000"
 preserveAspectRatio="xMidYMid meet">

<g transform="translate(0.000000,512.000000) scale(0.100000,-0.100000)"
fill="#fff" stroke="none">
<path d="M1580 4465 c-251 -42 -501 -181 -659 -365 -76 -88 -111 -140 -160
-236 -79 -158 -121 -338 -121 -519 1 -175 49 -472 88 -539 61 -105 216 -103
274 4 22 40 20 99 -6 215 -39 176 -45 405 -12 525 66 247 227 440 450 540 106
48 189 64 321 65 99 0 132 -4 190 -23 235 -78 435 -280 590 -599 74 -149 122
-187 220 -169 57 11 88 48 153 178 84 170 151 267 262 379 190 192 395 267
627 229 358 -57 623 -326 675 -684 9 -66 9 -115 0 -223 -22 -252 -85 -475
-197 -698 l-70 -140 -217 -3 -217 -2 -217 362 c-119 200 -228 375 -242 390
-51 55 -144 62 -205 15 -23 -17 -108 -158 -292 -481 -143 -251 -262 -456 -265
-456 -3 1 -120 172 -260 382 -140 210 -267 391 -282 401 -14 11 -48 22 -75 24
-91 8 -107 -7 -351 -337 l-218 -295 -471 -5 c-457 -5 -472 -6 -499 -26 -53
-39 -69 -71 -69 -134 0 -63 16 -95 69 -134 27 -21 40 -21 554 -24 487 -2 530
-1 562 15 25 13 87 86 220 260 102 133 187 242 190 242 3 0 122 -175 265 -390
143 -215 272 -402 288 -415 54 -45 138 -40 190 11 13 14 138 223 278 465 139
242 256 440 259 440 3 0 84 -132 181 -292 140 -233 183 -297 210 -313 30 -17
57 -21 212 -25 l177 -5 -71 -85 c-100 -118 -443 -459 -564 -559 -195 -161
-591 -441 -625 -441 -18 0 -290 181 -434 290 -72 54 -182 142 -245 197 -239
205 -243 208 -324 183 -114 -34 -152 -168 -74 -257 49 -55 304 -272 450 -381
163 -122 284 -203 451 -304 118 -71 135 -78 182 -78 46 0 63 7 155 63 852 517
1496 1204 1763 1879 125 317 182 691 143 943 -76 486 -448 862 -932 940 -419
68 -816 -123 -1087 -522 -22 -32 -43 -58 -48 -58 -4 0 -25 25 -46 55 -274 403
-676 596 -1094 525z"/>
</g>
</svg>
