<?xml version="1.0" ?><svg id="Icons" viewBox="0 0 24 24" xmlns="http://www.w3.org/2000/svg"><title/><g fill="#fff"><path d="M12,23c10.207,0,11-7.634,11-9.974,0-5.4-3.8-7.595-5.8-8a.992.992,0,0,0-.989.372,1,1,0,0,0-.1,1.053,3.692,3.692,0,0,1,.469,2.409c-.087.141-.429.156-.573.156-.788,0-1.145-1.008-1.286-1.609-.452-1.912.128-4.212.734-4.516A1,1,0,0,0,14.9,1c-.29.029-6.168.679-9.176,5.511A2.278,2.278,0,0,1,5.9,5.454,1,1,0,0,0,4.444,4.176C4.3,4.27,1,6.54,1,12.023,1,19.2,4.8,23,12,23ZM3.887,7.95a13.987,13.987,0,0,0,.605,2.071,1,1,0,0,0,1.9-.081,9.5,9.5,0,0,1,6.475-6.423,8.97,8.97,0,0,0-.1,4.353c.473,2,1.651,3.149,3.232,3.149a2.473,2.473,0,0,0,2.274-1.1,3.151,3.151,0,0,0,.338-2.074A5.974,5.974,0,0,1,21,13.026C21,16,19.831,21,12,21c-6.056,0-9-2.936-9-8.977A8.992,8.992,0,0,1,3.887,7.95Z"/></g></svg>